<svg id="Layer_1" data-name="Layer 1" xmlns="http://www.w3.org/2000/svg" viewBox="0 0 328 295.91"><defs><style>.cls-1{fill:#ce182c;}.cls-2{fill:#ebbabe;}.cls-3{fill:#da6a74;}</style></defs><title>logo_federalisme_di_Malaysia_trans_red_png</title><path class="cls-1" d="M218.05,304.84c1.33-2.29,2.47-4.8,5.7-4.85l4.91,3.45c.77-5.22-2.72-4-4.88-4.5-7.69-2.58-11.24-12-6.36-18.46,3.88-5.11,11-7.24,15.74-3.71,6.17,4.59,9,9.71,4.4,16.88-2.63,4.12-2.59,4.15-1.39,7.58,2.41-3.27,5-6.05,9.23-5.06,3.94.93,5.78,3.92,7.07,8.06,1.38-.94,2.56-1.69,3.69-2.52,5.3-3.9,11-7.76,17.71-6.62,5.33.91,10.62,3.38,15.33,6.17,7.4,4.37,9.76,4.91,16.37-.51,8.66-7.09,25.67-7.74,33.8,3.29,1.91,2.58,3.35,2.36,5.69.42,9.18-7.63,19.51-12.58,31.74-13,9.6-.33,15,5.66,19.5,12.77,1.94,3.07,3.34,5.12,7.61,4.51,10.19-1.45,17.47,4,23.91,11.11,3.24,3.58,6.93,6.73,10.33,10.17,5.49,5.57,11.3,10.89,16.23,16.92,5.11,6.25,5.64,14,4.07,21.68-1.38,6.71-.56,13,1.44,19.41a23.72,23.72,0,0,1,1.05,10.15c-3,20.42-15.94,31-35.3,35.1a12.14,12.14,0,0,0-2.47,1.15c4,4.35,7.93,8.15,11.34,12.36,8,9.81,7.94,20.36,1.5,30.79-4.78,7.73-8.2,15.78-9.41,24.83C425.52,510.46,421,516.85,416,523c-10.06,12.28-23.31,18.71-38.54,21.7-5.68,1.11-11.34,2.53-17.09,3.12a24,24,0,0,1-19.81-6.58c-3-2.93-5.75-6.2-8.65-9.28-.91-1-1.94-1.84-2.53-2.4-5,3.5-9.63,6.76-14.28,10a4.07,4.07,0,0,1-2,1c-6.46-.13-9,4.52-11.88,9.15-5.12,8.21-19.42,13.92-28.88,11.89a76.3,76.3,0,0,1-9-2.18c-4.91-1.7-8.63-.28-11.91,3.47a22.89,22.89,0,0,1-17,8.08c-10.6.36-18.89-5.48-23.21-16.06a19.8,19.8,0,0,1-1.45-3.83c-1.46-7.81-7.11-10.34-14-11.58-8.14-1.46-15.37-4.56-21-11.06a25.21,25.21,0,0,1-6.39-19.75c.26-3,.74-5.9.87-8.86,0-.83-.72-2.27-1.37-2.44-5.7-1.55-9.31-6-13.25-9.76a45.37,45.37,0,0,1-12.17-20.19c-1.82-6-.51-11.54.9-17.16.93-3.7,2.63-7.21,3.63-10.91a6.13,6.13,0,0,0-.55-4.53,62.32,62.32,0,0,0-6.3-7.21,22.71,22.71,0,0,1-6.73-14c-1.41-13.88,3.17-25.72,12-35.73a91.46,91.46,0,0,1,19.69-17.28c10.73-6.73,22.23-8.94,34.5-7.9,4.77.41,9.44,1.93,14.45,3,.3-12.52,6.61-21.79,16.55-29.07l-.9-1c-1.31.44-2.9.56-3.85,1.39-1.37,1.2-2.6,2.61-4.26,1.1s-3.71-3.42-4.41-5.53c-1.18-3.59,1.65-5.73,4.34-7.38s4.74.09,6.76,1.6,3.75,2.86,5.62,4.29l1.09-.88c-2-3.08-3.92-6.21-6.06-9.18a2.94,2.94,0,0,0-2.59-.8c-3.83,1.12-6.22-.57-8-3.68C218.22,306,218.13,305.41,218.05,304.84ZM359,462.11,357,463c-11.66-7.78-19.42-10.73-24.36-9.24,17.37,11.47,33.14,32.44,37.29,48.17-10.78-13.64-22.73-25.95-38-34.61a16.89,16.89,0,0,0,2,3.71c3.22,6.14,6.44,12.3,9.48,18.54.41.85-.18,2.19-.31,3.31-1-.57-2.25-.92-2.92-1.75-3.54-4.33-6.65-9-10.43-13.12-6-6.52-12.47-12.67-19.47-19.71,0,4.45-.35,7.61.07,10.67,1.47,10.82,3.2,21.54,9.81,30.81,2.36,3.31,3.53,7.42,5.59,11a103.71,103.71,0,0,0,7.91,12c2.54,3.21,6,5.69,8.59,8.85a18.7,18.7,0,0,0,17.47,7.06c14.57-1.86,29.15-4,41.43-13.37,8.15-6.19,14.27-13.51,16.42-23.87a122.72,122.72,0,0,1,5.19-18.14c1.5-4,4.41-7.46,6.36-11.32,3.54-7.05,3.41-14-1.81-20.25a90.59,90.59,0,0,0-8.37-9c-5.25-4.82-11-8.74-18.43-9.7-6-.77-11.86-2.79-17.87-3.42-10.68-1.11-21.41-1.72-32.14-2.27-2.76-.14-5.57.72-8.35,1.12a8.78,8.78,0,0,0,4.31,2.26c11.78,2.81,20.85,9.58,28,19.15.52.7.33,1.91.47,2.89a10.21,10.21,0,0,1-3.1-.74c-2.63-1.61-5-3.64-7.7-5.15-10.58-5.95-22.14-6.91-34-6.39a23,23,0,0,0-3.24.78C340.2,445.58,350.05,453.17,359,462.11Zm-8.38-46.35.15,1.26c.19.13.38.36.58.37a268.45,268.45,0,0,1,52.17,7.27c3.36.8,6.93,2.21,10.16,1.72a117.19,117.19,0,0,0,20.5-5c6-2.06,11.77-5.18,14.31-11.65,3.18-8.12,4.37-16.29,1.49-25-1.27-3.81-.9-8.24-.85-12.38s1.08-8.08.93-12.09c-.34-8.64-6.75-13.77-12.21-19.26s-11.74-10.66-17.26-16.34c-7.92-8.16-12.75-10.11-22.1-3.47-3.15,2.24-5.56.82-6.41-3a52.71,52.71,0,0,0-3.08-9.86c-2.31-5.2-6.25-8.36-12.33-7.67a56.67,56.67,0,0,0-9.49,1.49c-13.59,4-23.31,12.21-27.48,26.23-1.69,5.72-3.63,11.36-5.61,17-3.17,9-6.46,17.88-10,27.61a29.37,29.37,0,0,0,3.5-2.32c3.32-3,6.39-6.31,9.88-9.11a86.09,86.09,0,0,1,25.16-14.33c.92-.33,2.19.33,3.3.53-.56.86-.93,2-1.7,2.52-4,2.78-8.27,5.08-12,8.14a89.9,89.9,0,0,0-20.19,24.38,13.33,13.33,0,0,0,3.48-1.8c6.32-4.11,12.46-8.54,19-12.27,11.35-6.48,23.64-10.81,36.13-14.49,1.3-.38,2.9.24,4.36.4-1,1-1.92,2.43-3.17,3-5.4,2.5-11,4.59-16.38,7.13a127.3,127.3,0,0,0-32.73,22.54c-3.39,3.17-6.1,7.06-9.12,10.61a2.11,2.11,0,0,0,2.1-.08,70.63,70.63,0,0,1,40.6-11.18c6.29.2,12.62.35,18.84,1.17,2.13.28,5.44,0,6.76,4.41-21.56-.18-41.6,4.11-59.17,16.71a4.27,4.27,0,0,0,2.45.61c4.8-.39,9.61-1.16,14.41-1.15a83,83,0,0,1,12.9,1.44c1,.16,1.75,1.42,2.63,2.17a10.73,10.73,0,0,1-3.07,1.38c-2.23.21-4.51-.16-6.73.11C360.42,414.15,355.52,415,350.6,415.76Zm-96.12,32.41-.33-1.45c-2.88.32-5.79.43-8.62,1-14.22,2.82-27.63,7.9-38.59,17.5-7.33,6.42-13.33,14.34-20.1,21.43-5.33,5.59-7.66,12.63-8.92,19.78-1.72,9.7,1.42,18.37,11.64,21.82,3.86,1.29,7.78,2.47,11.74,3.38,7.9,1.81,13.28,6.27,16.12,14a72.62,72.62,0,0,0,5.19,11.13c2.28,3.94,8.84,6.06,13.34,5.25,5.08-.92,8.74-4,12.29-7.32,4.28-4,8.53-6.55,15-4.4a48.65,48.65,0,0,0,16.06,2.24c6.82-.14,12.69-3.25,16.11-9.53,2.94-5.39,6.66-9.34,13-10.74a22.86,22.86,0,0,0,9.35-4.33c1.76-1.45,3.39-5,2.86-6.93-1.58-5.8-4.2-11.32-6.54-16.89-4-9.58-8.14-19.12-12.19-28.69a18.82,18.82,0,0,1-.72-2.7l-1.55.29c.63,4.79,1.33,9.58,1.86,14.39a17.21,17.21,0,0,1-.38,3.67c-1.15-.56-2.86-.8-3.37-1.71-2.82-5.05-5.79-10.1-7.84-15.49-1.58-4.13-1.87-8.76-2.85-13.8-1.54,1.64-3.12,2.68-3.78,4.14-2.58,5.75-5.44,11.46-7.16,17.48-3.41,11.92-3.67,24.25-3.51,36.57a32.19,32.19,0,0,1-.55,4.45l-1.79.14c-5-9.44-5.39-19.82-5.39-30.39,0-10.85,3.41-20.8,8.08-31.44-8.43,2.41-15.05,5.8-20.77,10.95-7.19,6.48-12.05,14.45-15.46,23.44-.42,1.11-1.62,1.93-2.45,2.89-.5-1.26-1.45-2.53-1.42-3.78.18-9.79,4.57-17.9,11-24.82,4-4.29,8.78-7.89,13.66-12.2-1.84.34-3.35.34-4.61.9-4.77,2.12-9.44,4.46-14.2,6.6a19.77,19.77,0,0,1-3.9.89c.32-1.53.11-3.66,1-4.5a157.22,157.22,0,0,1,12.43-10A42.58,42.58,0,0,1,254.48,448.17Zm-3.37-11.25.35-1.3c-6-1.89-11.84-4.17-17.91-5.59a92.64,92.64,0,0,0-40.15-.84c-1.1.23-2.38-.4-3.57-.63.84-1,1.49-2.4,2.57-3a45.15,45.15,0,0,1,24.26-6c4.29.17,8.58.39,13.19.6-.56-.53-.91-1.16-1.38-1.26-5.07-1.17-10.2-2.11-15.24-3.41-2.41-.62-5.64.16-7.25-3.83,7.57-1.21,14.81-.58,22.16-.26A16.34,16.34,0,0,0,224,409c-5.56-2.18-11.16-4.25-16.68-6.51-1-.4-1.7-1.48-2.54-2.25a16.51,16.51,0,0,1,3.25-2.1c.67-.26,1.64.29,2.49.46L227.42,402a3.72,3.72,0,0,0-2-2.14c-2.16-.95-4.43-1.65-6.55-2.68a21.89,21.89,0,0,1-3.35-2.47c1.4-.47,3-1.63,4.15-1.3,7.13,2,14.39,3.82,21.15,6.76,5.56,2.43,10.48,6.32,16.53,10.09a25,25,0,0,0-1.76-4.15c-1.69-2.45-3.48-4.84-5.38-7.13-8.59-10.36-17.3-20.66-28.9-27.82-12.5-7.71-26.09-10.81-40.35-6.32-15.34,4.83-27.09,14.56-34.21,29.19-5.54,11.39-6,22.4,4,32a21.57,21.57,0,0,1,3.55,4.75c3.33,5.74,1.18,11.27-.69,16.87a54.2,54.2,0,0,0-2.94,11.44c-1.25,12.12,11.13,26,20.75,29.71a4.16,4.16,0,0,0,3.68-1c4.86-5.64,9.62-11.36,14.2-17.23,11.91-15.24,28-24,46-29.46C240.57,439.49,245.87,438.29,251.11,436.92ZM293.17,404c0-4.92-.11-9.84,0-14.76a60.43,60.43,0,0,1,8-29.16c.76-1.32,2.34-2.17,3.54-3.24.2,1.57.39,3.15.58,4.73,0,.11-.08.23-.11.35-3.12,11.81-3.19,23.87-2.88,35.94a27.41,27.41,0,0,0,1,4.85c1.08-2.93,1.38-5.93,2.36-8.68,6.32-17.8,12.95-35.5,19.15-53.34,2.8-8.08,5.06-16.38,7.15-24.68.84-3.33.09-7-3.56-8.53-4.91-2-10-3-14.85.65a69.2,69.2,0,0,1-7,4.24c-4.62,2.71-9.47,4-14.59,1.63-3.7-1.73-7.11-4.09-10.87-5.67-3.21-1.34-7-3.28-10-2.66-7.08,1.44-12.52,6.2-17.53,11.56,6.94,2.3,8.87,5.67,7.36,12.35a4.54,4.54,0,0,0,.72.13c5.15.16,8.74,2.92,9.14,7,.38,3.94-2.76,7-8.06,8-.87.17-2.19,1.19-2.23,1.88-.38,5.65-1.87,11.39.57,16.92,3.91,8.88,7.81,17.76,11.9,26.55,1.52,3.27,3.56,6.3,5.36,9.44l1-.31c0-1.32.05-2.63,0-3.94-.42-8.89-1-17.78-1.25-26.68-.28-10.12,2.5-19.63,6.55-28.8.58-1.32,1.84-2.35,2.78-3.51l1.38.46c-1,11.29-3.73,22.39-2.62,33.9S288.66,393.22,293.17,404Zm-29.95-4.72c.15-.55.32-.81.26-1a190.83,190.83,0,0,0-16.69-40.84c-1.49-2.74-4.33-4.75-6.6-7.14-5.53,6.4-8.55,6-14.25-1-2.49,7.24-.83,11.31,4.53,16.16,8.35,7.57,16.21,15.69,24.12,23.73C257.66,392.23,260.28,395.77,263.22,399.25ZM230,340.49l12.89,2.76-5.37-11.08Zm19-8.28c1.33,4.53,2.48,8.47,3.71,12.68,4.24-3.7,3-7.83,3-11.91Z" transform="translate(-133.12 -275.03)"/><path class="cls-2" d="M218.05,304.84c.08.57.17,1.15.25,1.72Z" transform="translate(-133.12 -275.03)"/><path class="cls-3" d="M359,462.11l1.28,2.17L357,463Z" transform="translate(-133.12 -275.03)"/></svg>