<svg id="Layer_1" data-name="Layer 1" xmlns="http://www.w3.org/2000/svg" viewBox="0 0 328.43 296.43"><defs><style>.cls-1{fill:#9c9c9b;}.cls-2{fill:#fdfdfc;}.cls-3{fill:#f5f5f5;}</style></defs><title>logo_federalisme_di_Malaysia_trans_grey</title><path class="cls-1" d="M211.58,354.37c.59-12.52,6.61-21.68,16.41-28.76l-1-.89c-1.17.51-2.66.72-3.47,1.58-2.89,3-4.89.85-6.89-1-2.31-2.14-2.77-5.85-1.17-8.09,3.28-4.6,6.69-4.93,10.92-1.21,1.54,1.35,3.29,2.46,5,3.68l1.09-.78c-2-3-4-6.12-6.19-9-.39-.52-1.77-.54-2.64-.42-3.69.51-7.19-1.42-7.89-4.5-.52-2.26,1.92-4.9,6.3-6.2-1.26-.81-2-1.38-2.89-1.86A12.24,12.24,0,0,1,226.73,274c5.36.71,11.31,6.8,10.89,12.06-.23,2.78-2.21,5.41-3.3,8.15-.6,1.5-1,3.09-1.37,4.3,3.73-1.32,6.84-3.22,10-3.36,4.14-.18,5.75,3.64,7.46,7.5,1.21-.79,2.41-1.5,3.53-2.32,5.43-4,11.33-7.77,18.12-6.53,5.32,1,10.5,3.69,15.26,6.46,6.87,4,9.64,4.46,15.8-.66,8.88-7.37,25.94-7.53,33.89,3.05,2,2.62,3.34,2.36,5.66.36a55.8,55.8,0,0,1,28-13c9.58-1.55,18.6,3.43,23.79,13.24,1.54,2.92,2.92,4.44,6.71,3.94,10.46-1.39,17.94,4.18,24.59,11.47,3.24,3.56,6.95,6.69,10.39,10.08,7.65,7.55,17,13.85,19.84,25.07a30.24,30.24,0,0,1,.57,12.86,37.33,37.33,0,0,0,1.5,20.47c2.19,6.28.23,12.51-1.44,18.65-3.7,13.6-13.82,20.35-26.26,24.62-2.79,1-5.63,1.78-9,2.83.73,1,1.19,1.74,1.79,2.39,3.06,3.28,6.36,6.35,9.2,9.82,8,9.81,8.11,20.4,1.67,30.86a65.26,65.26,0,0,0-9.53,25.22c-1.19,8.22-5.83,14.58-11,20.82-9.91,12.08-23,18.35-37.87,21.53a148,148,0,0,1-18.26,3.15c-7.44.62-14.3-1.51-19.73-7-3.06-3.09-6-6.33-8.86-9.58-1.62-1.81-3-1.86-4.6,0a32.89,32.89,0,0,1-18.42,10.62c-1.54.33-3.14,2-4.05,3.46-9.1,14.56-22.62,19.89-38.91,14.56-6-2-10.15-.76-14.49,3.74-10,10.42-25.43,10-34.86-1a29.72,29.72,0,0,1-6.06-11.4c-2-7.55-6.85-10.41-14-11.72-7.48-1.38-14.36-4.09-20-9.89-7.26-7.43-8.9-16-7.61-25.72a37.1,37.1,0,0,0,.66-4.4c0-.77-.55-2.09-1.1-2.24-5.8-1.61-9.55-6.1-13.56-9.95A44.1,44.1,0,0,1,140,466.94c-1.68-5.73-1.09-11.36.37-16.94,1-3.7,2.71-7.22,3.47-11a10.24,10.24,0,0,0-.91-6.52c-1.35-2.43-3.61-4.4-5.61-6.44-4.07-4.15-5.93-8.88-6.47-14.87-1.24-13.71,3.81-25.1,12.4-34.81,5.67-6.41,12.72-11.71,19.67-16.81,9.94-7.29,21.54-9.23,33.62-8.27,3.43.27,6.8,1.34,10.19,2Zm16.61-14.56,12.11,2.08c-1.56-3.35-2.68-6-4.1-8.56a2.75,2.75,0,0,0-2.58-.33c-1.93,2.16-3.61,4.55-5.38,6.86l-.4.27c.08,0,.19,0,.23,0A1,1,0,0,0,228.19,339.81ZM331,451.92l-.81-.15.52.44c3.16,2.56,6.45,5,9.48,7.71a102.85,102.85,0,0,1,26.61,37.2,6.94,6.94,0,0,1,0,2.19c-6-6.42-11.52-12.74-17.53-18.5s-12.49-11.38-20.21-15.13c.77,1.62,2,2.87,2.73,4.35q4.89,9.39,9.51,18.9c.34.68-.15,1.76-.25,2.65a14.35,14.35,0,0,1-2.81-1.08c-.58-.37-.81-1.24-1.3-1.79-8-8.86-16-17.73-24.06-26.51-1.27-1.37-3-2.28-5.48-4.1.84,5.85,1.9,10.57,2.11,15.32.34,7.52,2.67,14.35,6.05,20.92,3.18,6.19,6.27,12.44,9.67,18.51a47.26,47.26,0,0,0,5.83,8.1c2.79,3.17,6.22,5.81,8.85,9.1a18.69,18.69,0,0,0,17.76,7.23c14.57-2,29.28-4,41.49-13.45,7.77-6,13.82-13.1,15.68-23.13.76-4.13,1.43-8.37,2.95-12.25A98.86,98.86,0,0,1,425,473.83c4.69-7.88,5.94-16.89-1-24.06-2.59-2.68-4.84-5.73-7.65-8.14-4.71-4-9.51-7.95-16-9-5.37-.9-10.62-2.59-16-3.35-13.12-1.86-26.27-3.74-39.59-2.48-1.54.15-3.07.34-4.61.51l-.11.94c1.48.47,2.94,1,4.44,1.39,11.69,2.76,20.51,9.71,27.7,19,.54.7.39,2,.56,2.94-1-.08-2.27.21-2.85-.31-7.14-6.33-15.69-9.61-24.89-11-6.26-.92-12.68-.8-19-1.14,5.43,3.63,10.92,6.32,15.91,9.74s9.74,7.67,14.51,11.63c.67.55.94,1.6,1.9,3.34-6.31-3.41-11.39-6.5-16.77-8.94C338.25,453.39,334.51,452.87,331,451.92Zm-76.71,4.5c-6.25,2.72-12.48,5.46-18.75,8.11a10.78,10.78,0,0,1-2.94.33,12.24,12.24,0,0,1-.1-3.07,4.18,4.18,0,0,1,1.43-2.14c4.28-3.37,8.56-6.73,13-9.95a38.82,38.82,0,0,1,5.07-2.68l-.36-1.2c-2.84.35-5.73.5-8.53,1.08-14.34,2.94-27.83,8.23-38.91,17.83-7.17,6.2-12.86,14.1-19.39,21.07-5.09,5.43-7.06,12.24-8.68,19.11-2.3,9.7,2.37,19,10.58,21.77A109.6,109.6,0,0,0,198.39,530c8.35,1.82,14.09,6.47,17,14.58a76.24,76.24,0,0,0,3.22,7.56c4.34,8.89,13.11,11.27,21.32,5.72,2.35-1.59,4.44-3.58,6.66-5.37,3.51-2.84,7-5.65,12-4.26a68.51,68.51,0,0,0,9.74,2.48c9.63,1.2,19.52.76,25.71-10.9a16.89,16.89,0,0,1,11.05-8.7,31.49,31.49,0,0,0,10.13-4.51c1.72-1.26,3.37-4.67,2.88-6.54-1.49-5.58-3.95-10.92-6.2-16.29-4.07-9.74-8.28-19.42-12.38-29.15a16.28,16.28,0,0,1-.65-2.9l-1.54.28c.63,4.66,1.33,9.31,1.84,14a19,19,0,0,1-.38,4c-1.24-.66-3-1-3.62-2-2.78-4.82-5.68-9.65-7.64-14.81-1.6-4.18-1.93-8.85-3-14.18a49.91,49.91,0,0,0-4.22,5.09,54.56,54.56,0,0,0-7.83,22.71c-1.13,10-1.25,20.07-1.91,30.11a29.77,29.77,0,0,1-1.1,4.83l-1.57-.08c-5.13-9.43-5.37-19.81-5.41-30.32,0-10.83,3.34-20.79,7.12-31.06-5.1,1.83-10,3.68-14.27,6.5-10.1,6.65-16.6,16.22-20.89,27.43-.42,1.1-1.61,1.91-2.44,2.86-.54-1.23-1.54-2.47-1.54-3.71-.07-9.92,4.63-17.92,11.07-24.85,3.94-4.25,8.72-7.71,13.11-11.53l1.52-.61-.16-.49Zm94-40.68a4.66,4.66,0,0,0,1.16.5c19.21.43,38,3.51,56.61,8.19,1.67.42,3.54,1,5.12.68,7-1.52,14.12-2.9,20.89-5.21,6-2.06,11.77-5.31,14.16-11.83,2.87-7.83,3.64-15.76,1.32-24.09-1.19-4.27-1.15-9.05-.78-13.53.53-6.56,2.44-13.27-1.77-19.14a99,99,0,0,0-10.37-11.61c-5.74-5.84-11.67-11.5-17.54-17.21-6.9-6.69-12-8.17-20.14-2.67-4.09,2.76-6.61,1.63-7.66-3.1a48.66,48.66,0,0,0-3.66-10.85q-2.78-5.64-9.61-5.91c-8.76-.35-16.5,2.61-23.62,7.06a33.28,33.28,0,0,0-14.06,17.37c-3.5,10-6.64,20.06-10.07,30.05-2,5.82-4.25,11.56-6.39,17.33a6.68,6.68,0,0,0,3.19-1.92c3.55-3.31,6.72-7.2,10.72-9.81,7.68-5,15.8-9.36,23.85-13.77.95-.52,2.64.28,4,.46-.8,1-1.4,2.26-2.42,2.84-9.37,5.26-17.06,12.42-23.73,20.73-2.63,3.26-5,6.74-7.47,10.12a2,2,0,0,0,1.85,0,8.68,8.68,0,0,0,1.57-1c13-10.61,28.1-17.15,43.69-22.76,3.74-1.34,7.5-2.65,11.34-3.64,1.3-.33,2.87.39,4.32.62-1.06,1-1.94,2.52-3.2,3-17.67,6.56-33.9,15.52-47.68,28.5-3.77,3.55-7,7.64-10.81,11.78,1.06.22,1.38.39,1.52.3a70.21,70.21,0,0,1,41.59-11.73c6.29.18,12.59.45,18.85,1.09,2.28.24,4.44,1.66,6.66,2.53l-.41,1.19c-10.19,1.42-20.51,2.21-30.52,4.43a71.93,71.93,0,0,0-28.11,13c5.67,0,11.18-.65,16.67-.5s11.05.28,15.88,3.9C365,413.16,356.21,411.37,348.27,415.74ZM248.7,435.67l.11-1.21c-5.29-1.66-10.52-3.51-15.86-4.93a94.29,94.29,0,0,0-41.71-1.39c-1.18.22-2.54-.56-3.81-.88.81-.93,1.44-2.14,2.45-2.75,10.05-6.11,21.19-6.61,32.49-6.05a41.56,41.56,0,0,1,4.54.71c-.3-1-.69-1.32-1.13-1.41-6.05-1.32-12.14-2.49-18.15-4-1.28-.32-2.28-1.74-3.41-2.65,1.16-.5,2.3-1.37,3.47-1.42,3.86-.18,7.73-.13,11.6,0,1.78.05,3.56.44,5.34.67l.23-1.1c-6.58-2.55-13.18-5.05-19.72-7.72-1-.4-1.67-1.54-2.49-2.34a23.19,23.19,0,0,1,3.53-2.26c.52-.24,1.39.38,2.12.53q8.35,1.66,16.71,3.29l.39-1c-3.12-1.25-6.28-2.4-9.32-3.8-1.09-.5-1.87-1.64-2.8-2.48,1.16-.44,2.35-1.32,3.48-1.26a49.72,49.72,0,0,1,21.61,6.44c5.38,3,10.45,6.49,15.66,9.76a5.58,5.58,0,0,0-1-3.76,166.78,166.78,0,0,0-26.88-29.36C212.58,364,197,359,179.9,363.52c-15.91,4.22-28.05,14.4-35.35,29.41-5.46,11.21-6.07,22.13,4,31.72,5.78,5.51,7,12.12,3.9,19.75a55.6,55.6,0,0,0-3.58,13.23c-1.74,12.09,10.81,25.84,20.12,29.8,1.89.81,2.82.4,4-1.13,5.47-6.9,10.9-13.85,16.69-20.49,11.93-13.71,27.53-21.44,44.63-26.52C239.07,437.88,243.91,436.86,248.7,435.67Zm2.52-120.59.65,1.28c6.23,1.8,8.35,5.5,6.87,12a3.79,3.79,0,0,0,.72.18c5.14.29,8.68,3.08,9.05,7.15.36,3.89-2.74,6.83-8.12,8-.85.18-2.1,1.22-2.17,1.95-.55,5.9-1.74,11.89.84,17.63,3.86,8.62,7.71,17.25,11.73,25.8,1.48,3.16,3.41,6.11,5.14,9.16l1-.26c-.09-1.65-.14-3.3-.29-5-.58-6.42-1.78-12.84-1.65-19.24.21-10.29,1.3-20.59,5.19-30.28,1.18-2.93,1.54-6.66,6.5-8.54-1.09,8-2.66,15.29-2.9,22.61-.25,7.62.57,15.31,1.3,22.93A69.14,69.14,0,0,0,290.21,402c.35-4.41.22-8.77.37-13.12A64,64,0,0,1,299.3,358c.61-1,2.19-1.5,3.32-2.24.17,1.24.37,2.47.51,3.7a3.27,3.27,0,0,1-.15,1.11c-2.88,11.7-3.36,23.6-2.92,35.56a24.54,24.54,0,0,0,.67,4.07c3.29-9.52,6.78-19.7,10.32-29.88,6-17.38,12.21-34.71,18.05-52.16,1.8-5.39.39-10.22-2.91-11.66-4.91-2.14-9.91-3.18-14.82.46a72.38,72.38,0,0,1-7.92,4.82c-4.19,2.33-8.64,3.54-13.2,1.35-4.81-2.29-9.29-5.38-14.23-7.26-2.92-1.11-7-1.74-9.61-.53C261,307.89,256.24,311.77,251.22,315.08Zm-27.46,33c-2.61,7.21-1.25,11.82,4.53,16.15,11.35,8.49,20.3,19.35,29.56,29.91.56.64.76,1.57,1.29,2.25a19.69,19.69,0,0,0,2.53,2.14,216,216,0,0,0-17.4-42.66,18,18,0,0,0-4.63-4.8,3.13,3.13,0,0,0-2.92-.31C230.51,354.94,227.91,354.52,223.76,348.06Zm26.52-4.47c4.43-3.57,3.22-7.66,3.08-11.66l-6.4-.78C248.13,335.56,249.16,339.42,250.28,343.59Z" transform="translate(-130.67 -273.94)"/><path class="cls-2" d="M254.25,456.42l1.81-.54.16.49-1.51.62Z" transform="translate(-130.67 -273.94)"/><path class="cls-3" d="M228.19,339.81a1,1,0,0,1-.12.3s-.15,0-.23,0l.4-.27Z" transform="translate(-130.67 -273.94)"/><path class="cls-2" d="M330.67,452.21l-.52-.44.81.15Z" transform="translate(-130.67 -273.94)"/></svg>