 <svg  version="1.0" xmlns="http://www.w3.org/2000/svg"  width="300.000000pt" height="211.000000pt" viewBox="0 0 300.000000 211.000000"  preserveAspectRatio="xMidYMid meet">  <g transform="translate(0.000000,211.000000) scale(0.100000,-0.100000)" fill="#999999" stroke="none"> <path d="M699 2074 c-13 -15 -17 -92 -8 -146 4 -26 58 -87 59 -67 0 9 -9 28 -20 41 -33 43 -41 76 -30 119 6 21 17 39 24 39 7 0 36 -24 65 -54 46 -49 51 -59 51 -100 0 -47 -14 -96 -28 -96 -4 0 -25 53 -46 118 -22 64 -41 112 -43 107 -2 -6 19 -76 46 -155 35 -101 50 -135 50 -112 1 17 5 32 10 32 5 0 14 14 20 30 14 42 23 38 16 -7 l-6 -38 16 28 c9 15 20 27 24 27 5 0 13 -26 19 -57 l10 -58 -38 -41 c-47 -51 -66 -84 -52 -93 11 -7 31 -73 102 -338 28 -106 57 -211 65 -233 18 -50 11 -52 -14 -2 -32 64 -251 619 -251 638 0 2 19 -3 41 -11 49 -18 49 -18 49 -6 0 4 -20 14 -45 21 -44 12 -63 26 -52 36 3 3 15 0 27 -6 11 -6 31 -10 43 -8 l22 3 -23 13 c-13 7 -35 14 -50 15 -19 2 -31 11 -40 30 -15 32 -10 46 11 29 18 -15 30 -3 16 15 -9 10 -7 13 7 14 11 0 13 3 7 6 -7 2 -15 4 -18 3 -16 -3 -56 62 -54 87 2 16 -1 30 -6 33 -5 3 -9 -20 -10 -50 0 -56 5 -70 177 -545 28 -77 64 -169 80 -205 32 -70 78 -186 78 -197 0 -21 -23 25 -65 127 -44 109 -244 499 -320 626 -21 35 -35 71 -35 91 0 34 -8 41 -27 22 -8 -8 -13 3 -18 40 -8 57 -25 69 -26 19 0 -29 -1 -31 -9 -11 -9 21 -152 112 -177 113 -17 0 -18 -134 -2 -179 12 -35 6 -52 -13 -33 -7 7 -19 12 -27 12 -10 0 0 -14 24 -34 22 -19 40 -41 40 -49 0 -8 15 -27 33 -42 19 -16 61 -69 94 -119 67 -100 317 -429 330 -434 4 -2 8 -8 8 -14 0 -6 -116 108 -257 252 -210 213 -268 266 -311 286 -29 13 -57 22 -62 19 -5 -3 -20 1 -33 10 -13 8 -44 18 -70 21 -45 6 -47 6 -47 -17 0 -45 29 -131 51 -155 13 -13 40 -29 61 -34 21 -6 38 -16 38 -21 0 -7 15 -9 38 -7 21 3 50 -1 67 -9 25 -12 22 -7 -20 33 -98 93 -119 111 -107 87 7 -12 28 -35 49 -52 31 -26 34 -31 19 -37 -10 -4 -42 4 -74 17 -63 27 -89 64 -100 141 l-5 41 44 -6 c30 -4 51 -14 65 -31 12 -13 25 -22 28 -19 3 4 9 -8 12 -26 4 -17 11 -34 16 -37 18 -11 19 4 4 35 -20 38 -20 41 3 41 26 0 33 -12 41 -79 7 -54 7 -55 15 -23 9 38 25 25 25 -20 0 -15 5 -30 10 -33 13 -8 13 36 0 69 -14 38 2 32 45 -15 34 -38 36 -45 30 -84 -4 -29 -2 -46 6 -51 8 -5 11 -1 7 13 -3 11 0 29 6 40 10 18 26 4 181 -159 268 -282 328 -348 323 -353 -2 -3 -72 55 -155 128 -201 177 -226 197 -232 191 -3 -3 10 -18 29 -33 74 -56 251 -213 246 -218 -2 -3 -38 17 -78 44 -86 56 -80 52 -221 139 -60 36 -111 64 -114 61 -11 -12 483 -327 513 -327 23 0 16 -15 -52 -114 -62 -89 -84 -112 -84 -86 0 16 -91 70 -117 70 -23 0 -43 -26 -43 -55 0 -9 -20 -36 -45 -61 -49 -47 -55 -71 -31 -128 15 -37 79 -86 110 -86 11 0 27 7 36 15 16 14 19 13 40 -17 12 -18 34 -42 48 -52 l25 -20 26 32 c19 22 31 28 41 22 8 -5 19 -5 25 -1 5 5 25 12 43 16 36 7 44 -8 12 -25 -11 -6 -33 -34 -50 -63 -35 -61 -39 -117 -11 -163 16 -26 24 -31 45 -27 24 5 26 2 26 -26 0 -30 17 -80 38 -109 21 -31 101 38 116 101 6 24 10 27 29 20 62 -22 118 3 177 77 l32 41 -22 54 c-12 30 -26 55 -31 55 -19 0 -8 17 18 29 23 11 29 10 40 -5 12 -16 13 -16 13 -1 0 13 6 15 28 11 15 -3 71 2 124 10 54 9 113 16 131 16 18 0 41 6 50 12 14 11 4 13 -61 13 -51 0 -85 -5 -95 -13 -15 -13 -167 -30 -167 -19 0 2 19 17 41 32 33 22 43 24 50 13 8 -10 12 -10 23 4 14 19 52 26 41 8 -3 -5 -1 -10 4 -10 6 0 11 8 11 19 0 17 -6 18 -65 13 -40 -3 -65 -1 -65 5 0 12 112 25 144 17 14 -3 31 2 47 15 17 15 20 20 9 21 -9 0 -21 -5 -27 -11 -6 -6 -16 -8 -23 -4 -16 10 7 35 34 35 24 0 53 16 45 25 -4 3 -19 0 -33 -7 -23 -10 -29 -9 -37 3 -7 11 -9 11 -9 -3 0 -20 -8 -22 -29 -9 -12 8 -12 12 -2 25 8 9 17 16 22 16 5 0 18 9 30 21 l20 20 -20 6 c-23 6 -29 23 -8 23 16 0 41 49 31 59 -4 3 -9 0 -11 -6 -7 -19 -21 -16 -33 8 -9 17 -8 25 6 41 18 19 18 19 -7 13 -21 -5 -27 -1 -42 31 -10 20 -16 39 -13 41 9 9 67 -39 97 -80 29 -40 38 -77 18 -77 -6 0 -9 -14 -7 -32 3 -29 7 -33 43 -40 64 -13 92 -28 104 -54 18 -39 13 -71 -15 -101 -20 -22 -24 -23 -19 -8 19 54 19 55 -16 55 -30 1 -148 -47 -149 -60 0 -3 28 -6 63 -8 57 -3 60 -2 42 12 -16 12 -17 17 -8 27 17 18 54 19 60 2 3 -8 -2 -22 -11 -32 -16 -17 -16 -19 0 -25 22 -9 68 34 94 89 16 32 21 66 23 147 l2 105 -88 179 -89 178 49 47 c42 40 57 48 113 57 73 13 167 3 206 -23 33 -22 39 -19 19 11 -9 14 -14 28 -11 32 10 10 31 -18 31 -42 0 -12 17 -42 38 -67 20 -24 47 -57 61 -74 l23 -29 16 31 c60 115 3 367 -108 479 l-42 42 25 19 c45 34 14 63 -97 93 -32 8 -58 26 -95 65 -83 88 -140 101 -278 66 -135 -35 -256 -107 -335 -202 -48 -57 -51 -71 -23 -99 11 -11 20 -22 20 -24 0 -2 -22 -18 -50 -36 -84 -54 -134 -133 -160 -252 -9 -39 -17 -55 -26 -51 -10 3 -12 17 -7 49 4 31 2 44 -6 44 -7 0 -9 5 -5 12 5 7 3 8 -6 3 -9 -5 -10 -21 -6 -54 28 -196 17 -180 -53 79 -80 299 -80 300 -37 334 19 14 37 26 39 26 2 0 7 -28 11 -62 17 -168 30 -248 38 -240 9 9 -8 160 -38 337 -17 94 -38 150 -54 140 -13 -8 -13 11 0 36 16 30 -3 23 -22 -8 l-17 -28 -1 43 c0 65 -35 118 -111 166 -24 15 -27 15 -40 0z m-355 -156 c-4 -7 -3 -8 4 -4 21 13 129 -53 143 -85 6 -17 17 -28 24 -25 7 2 17 -10 23 -31 16 -51 -10 -104 -58 -120 -32 -11 -31 -13 6 -17 6 -1 112 -151 235 -335 123 -183 230 -343 238 -355 41 -61 -114 106 -197 213 -53 68 -125 158 -159 201 -67 86 -133 180 -133 192 0 4 14 5 32 1 22 -4 29 -3 24 5 -4 7 -20 12 -36 12 -16 0 -32 5 -35 10 -3 6 3 10 14 10 12 0 21 5 21 10 0 6 -16 10 -35 10 -26 0 -35 4 -35 17 0 9 -14 32 -32 50 -25 26 -28 33 -14 33 15 0 13 6 -12 38 -23 29 -30 51 -35 103 -3 37 -3 69 0 73 11 11 24 6 17 -6z m1424 -70 c-3 -7 -10 -13 -16 -12 -7 1 -24 2 -39 3 -22 1 -25 3 -13 11 22 14 73 13 68 -2z m2 -39 c0 -5 -5 -7 -10 -4 -6 4 -41 1 -79 -5 -63 -12 -68 -14 -65 -36 2 -21 -2 -24 -32 -24 -19 0 -34 5 -34 10 0 6 12 10 28 10 18 0 23 3 14 9 -11 6 -11 10 0 18 32 27 178 45 178 22z m-310 -28 c0 -5 -6 -12 -12 -14 -7 -3 4 -6 25 -6 30 -1 37 -5 37 -21 0 -22 -16 -27 -23 -7 -3 9 -9 9 -24 0 -16 -9 -25 -9 -42 3 -27 19 -27 32 2 44 29 12 37 12 37 1z m250 0 c0 -5 -9 -12 -19 -16 -12 -3 -21 -17 -23 -33 -2 -23 -9 -28 -37 -30 -39 -4 -40 18 0 29 13 4 18 7 12 8 -26 2 -12 28 20 39 43 13 47 14 47 3z m143 0 c5 0 5 -5 2 -11 -7 -12 -75 -14 -75 -2 0 20 12 22 73 13z m-98 -51 c-4 -12 -1 -27 5 -35 10 -13 8 -15 -14 -15 -15 0 -25 4 -21 9 3 5 1 12 -5 16 -5 3 -10 -3 -10 -14 0 -14 -6 -21 -19 -21 -11 0 -28 -3 -38 -6 -12 -3 -10 1 7 13 14 10 38 30 55 45 36 33 49 35 40 8z m160 -3 c19 -13 33 -26 32 -28 -2 -2 5 -12 15 -21 17 -17 23 -12 19 15 -2 11 37 9 60 -3 10 -6 19 -17 19 -25 0 -8 -9 -19 -19 -25 -26 -13 -31 -13 -31 5 0 9 9 15 23 16 21 0 21 1 2 9 -35 15 -47 12 -40 -10 3 -11 4 -20 0 -20 -15 0 -75 30 -74 37 5 27 -1 35 -16 23 -13 -10 -15 -9 -15 9 0 25 -6 26 -27 6 -22 -23 -30 -9 -8 15 22 25 19 25 60 -3z m-1332 -12 c4 -8 2 -17 -3 -20 -15 -10 -39 -65 -30 -70 5 -3 17 9 26 27 10 20 19 28 22 20 2 -8 -4 -28 -13 -46 -17 -31 -17 -35 -2 -57 17 -23 17 -23 17 23 0 55 12 67 33 34 27 -41 273 -529 286 -566 12 -35 11 -35 -7 -15 -11 11 -101 142 -201 291 -121 181 -181 279 -181 297 0 28 29 97 41 97 4 0 9 -7 12 -15z m823 0 c10 -8 38 -15 62 -15 l43 0 -7 -37 c-10 -58 -21 -66 -54 -43 -16 11 -42 20 -58 20 -29 0 -30 1 -27 43 2 23 4 43 4 45 3 6 19 1 37 -13z m174 -10 c0 -9 9 -15 25 -15 41 0 29 -15 -35 -43 -33 -14 -60 -22 -60 -19 0 4 12 21 26 37 14 17 23 23 21 14 -4 -13 -1 -15 15 -11 20 5 20 6 3 19 -11 7 -25 13 -32 13 -7 0 -13 5 -13 10 0 6 11 10 25 10 16 0 25 -6 25 -15z m-240 -20 c0 -14 -8 -29 -20 -35 -17 -9 -20 -8 -20 13 0 23 16 47 32 47 4 0 8 -11 8 -25z m495 5 l30 -8 -36 -1 c-23 -1 -42 5 -50 16 -12 15 -12 16 6 9 11 -5 34 -12 50 -16z m80 -40 c27 -10 27 -11 9 -25 -14 -10 -20 -10 -23 -2 -7 19 -24 27 -63 27 -22 0 -38 5 -38 11 0 13 69 7 115 -11z m-38 -54 c-10 -19 -11 -20 -15 -3 -2 10 -1 26 3 35 5 14 8 14 15 2 5 -8 4 -22 -3 -34z m120 14 c10 0 35 -17 55 -37 35 -37 35 -39 21 -72 -12 -29 -18 -33 -43 -29 -35 5 -35 5 -14 -27 16 -24 15 -25 -4 -25 -23 0 -122 55 -134 74 -12 17 -9 26 7 26 8 0 15 -8 15 -18 0 -26 45 -45 71 -32 16 9 17 14 8 32 -10 19 -9 20 25 16 39 -4 41 -2 26 36 -6 17 -17 26 -30 26 -12 0 -18 5 -15 10 9 14 3 13 -55 -10 -27 -11 -50 -17 -50 -13 0 12 43 53 57 53 7 0 13 6 13 13 1 7 6 5 14 -5 7 -10 22 -18 33 -18z m-681 -6 c2 -11 -3 -14 -17 -11 -10 3 -19 1 -19 -5 0 -5 -4 -6 -10 -3 -16 10 -12 19 13 31 25 11 30 10 33 -12z m267 8 c-22 -17 -22 -17 35 -14 40 3 54 1 47 -7 -6 -6 -34 -12 -62 -13 -46 -2 -52 -5 -56 -27 -7 -34 1 -49 32 -65 l26 -14 -39 -7 c-34 -7 -41 -5 -57 16 -21 28 -25 78 -6 102 14 19 66 47 87 47 11 0 8 -6 -7 -18z m-143 -4 c0 -3 -16 -12 -35 -18 -29 -9 -38 -9 -50 4 -8 8 -15 16 -15 18 0 2 23 3 50 3 28 0 50 -3 50 -7z m317 -4 c2 -7 -6 -10 -23 -6 -16 3 -29 -1 -35 -9 -7 -11 -9 -11 -9 3 0 27 59 37 67 12z m78 -15 c4 -6 5 -13 1 -16 -8 -8 -56 6 -56 17 0 13 47 13 55 -1z m-365 -38 c0 -17 9 -45 20 -65 l21 -34 -21 -7 c-11 -3 -34 -18 -50 -31 -35 -30 -64 -28 -68 4 -3 16 0 20 12 16 38 -14 86 23 86 66 0 23 -18 7 -23 -20 -5 -22 -12 -30 -27 -30 -34 0 -60 19 -59 43 l0 22 11 -23 c16 -32 64 -28 61 6 -2 13 1 21 7 17 21 -13 9 15 -15 33 -23 18 -24 21 -8 25 44 11 53 8 53 -22z m210 22 c0 -12 -101 -75 -108 -68 -8 7 35 47 68 62 30 14 40 15 40 6z m80 -3 c0 -9 -12 -13 -35 -12 -5 1 -23 -17 -40 -39 -22 -30 -31 -36 -33 -24 -6 27 5 43 45 64 42 22 63 26 63 11z m-400 -10 c0 -6 -23 -9 -52 -9 -49 2 -51 2 -18 9 53 11 70 11 70 0z m658 -14 c4 -17 0 -18 -43 -13 -26 4 -51 10 -57 13 -18 12 15 24 57 22 30 -2 41 -8 43 -22z m-158 -16 c0 -23 -36 -47 -43 -27 -4 12 21 45 36 46 4 1 7 -8 7 -19z m-524 -3 c1 -1 5 -17 9 -34 8 -40 -6 -43 -29 -8 -19 29 -41 32 -50 8 -5 -12 -10 -13 -18 -5 -20 20 21 55 56 48 16 -4 30 -7 32 -9z m621 -22 l28 -24 -27 -1 c-17 0 -31 7 -38 19 -21 40 -4 42 37 6z m-733 -42 c-4 -16 -11 -31 -17 -34 -5 -4 -6 -16 -3 -27 4 -13 1 -22 -9 -26 -10 -3 -15 1 -15 12 0 15 -2 15 -10 2 -8 -12 -10 -10 -11 10 0 23 -1 23 -9 5 -6 -13 -9 -15 -9 -5 0 8 6 26 13 39 l13 24 10 -29 11 -29 7 30 c11 49 14 55 25 55 6 0 8 -11 4 -27z m499 2 c1 -5 -13 -17 -31 -27 -40 -20 -28 -31 19 -18 19 6 37 10 40 10 14 0 20 -52 8 -66 -10 -13 -14 -13 -28 0 -10 9 -26 13 -39 9 -18 -4 -21 -2 -16 11 9 23 -12 20 -37 -5 -16 -16 -24 -18 -32 -10 -9 9 -4 18 18 36 l30 24 -42 1 c-24 0 -43 4 -43 9 0 13 37 24 50 16 6 -4 16 -2 23 3 25 21 76 25 80 7z m97 -5 c0 -14 -31 -20 -51 -10 -30 16 -22 26 16 22 19 -2 35 -8 35 -12z m313 -23 c15 -30 17 -40 7 -52 -14 -17 -63 -20 -91 -5 -16 9 -17 14 -8 33 17 33 51 68 63 64 5 -2 18 -20 29 -40z m-834 0 c11 -22 11 -22 5 2 -4 16 -3 21 5 17 14 -9 15 -73 1 -81 -6 -4 -7 1 -3 11 4 11 3 15 -4 11 -6 -4 -14 -1 -16 5 -3 7 -6 -1 -6 -19 -1 -38 -14 -49 -31 -28 -10 12 -10 21 -2 40 7 14 16 25 22 25 7 0 8 6 0 19 -13 26 -13 31 4 25 7 -3 19 -15 25 -27z m248 -14 c9 -28 85 -103 104 -103 9 0 32 -11 51 -24 24 -16 40 -21 49 -15 19 12 39 11 39 -1 0 -5 -11 -10 -24 -10 -14 0 -27 -4 -30 -9 -3 -5 -40 0 -83 11 -65 17 -97 19 -191 14 -93 -4 -119 -2 -147 11 -46 22 -44 33 5 33 48 0 95 22 110 51 13 24 68 59 93 59 10 0 20 -8 24 -17z m432 -29 c46 -30 68 -50 61 -54 -9 -6 -9 -10 1 -16 16 -10 -24 -21 -76 -22 l-30 -1 31 17 c33 18 35 42 4 42 -19 0 -54 -56 -44 -71 3 -5 -12 -9 -33 -8 l-38 0 33 16 c20 11 32 24 32 36 0 19 -1 19 -20 2 -19 -17 -19 -16 -17 11 1 16 6 32 10 35 5 4 7 15 5 25 -3 16 -9 14 -41 -18 -20 -21 -37 -42 -37 -48 0 -14 27 -13 34 3 3 6 4 1 3 -13 -2 -22 -7 -25 -44 -26 -39 -2 -42 0 -33 17 6 10 8 29 4 43 -3 13 -1 27 5 30 6 4 11 2 11 -4 0 -7 17 2 38 19 20 17 44 30 53 31 8 0 48 -21 88 -46z m-828 -39 c11 -4 23 -4 28 -1 5 3 14 -1 20 -8 17 -20 -2 -28 -35 -16 -16 6 -39 8 -52 5 -23 -6 -23 -7 -7 -25 16 -17 15 -19 -2 -23 -16 -5 -16 -6 2 -5 35 1 45 -2 45 -12 0 -5 -6 -7 -14 -4 -17 6 -56 -12 -56 -26 0 -6 14 -10 31 -10 21 0 28 -4 23 -12 -16 -25 -20 -103 -9 -164 7 -38 5 -43 -16 -49 -13 -4 -29 -14 -37 -21 -35 -35 -47 4 -39 121 6 91 26 174 60 248 19 44 22 47 31 28 5 -11 17 -23 27 -26z m583 -10 c3 -9 12 -12 22 -8 12 4 15 2 12 -8 -6 -17 -48 -25 -48 -9 0 8 -9 10 -25 6 -31 -8 -33 7 -2 22 30 15 34 14 41 -3z m370 -11 c4 -9 4 -19 1 -22 -6 -6 -35 18 -35 29 0 16 28 10 34 -7z m61 3 c11 -9 14 -16 7 -21 -6 -3 -13 -2 -17 4 -3 5 -15 10 -26 10 -10 0 -19 5 -19 10 0 14 33 12 55 -3z m-908 -8 c9 -9 8 -15 0 -24 -17 -18 -36 -7 -30 16 6 22 14 24 30 8z m-105 -19 c-3 -11 0 -11 12 0 14 11 16 8 16 -21 l0 -32 -23 21 c-24 23 -33 56 -13 49 6 -3 10 -10 8 -17z m1008 -25 c0 -16 -35 -21 -44 -6 -8 12 4 21 26 21 10 0 18 -7 18 -15z m-749 -51 c26 -13 56 -24 68 -24 34 0 24 -20 -11 -21 -19 -1 -6 -5 32 -11 98 -14 140 -45 175 -130 14 -36 14 -38 -4 -38 -23 0 -37 30 -19 42 10 6 9 8 -4 8 -9 0 -20 -5 -23 -11 -4 -6 -13 -8 -21 -5 -7 3 -25 -1 -39 -8 -30 -16 -78 -84 -71 -101 6 -18 58 -42 106 -50 31 -5 40 -11 36 -22 -4 -8 -9 -26 -12 -40 l-6 -24 -24 21 c-12 12 -20 28 -18 35 3 7 1 16 -5 20 -6 3 -11 0 -11 -7 -1 -8 -7 -6 -18 7 -9 11 -42 28 -72 37 -39 12 -67 30 -95 59 -43 46 -88 69 -133 69 -26 0 -29 3 -25 25 3 15 15 28 32 34 l26 9 -30 1 c-16 0 -37 -3 -45 -9 -18 -11 -30 5 -30 43 0 25 3 27 26 21 19 -5 25 -4 20 5 -4 6 -14 11 -22 11 -12 0 -12 4 -4 20 6 11 19 20 30 20 13 0 18 5 14 15 -5 12 3 15 35 15 38 0 41 2 31 20 -10 18 -9 19 27 4 21 -8 59 -26 84 -40z m53 19 c-8 22 21 24 30 1 10 -26 7 -34 -11 -27 -25 8 -53 34 -53 47 0 6 9 0 20 -14 12 -15 18 -18 14 -7z m68 -18 c14 -36 14 -45 4 -45 -8 0 -16 12 -18 28 -3 15 -9 35 -13 45 -4 9 -3 17 2 17 5 0 16 -20 25 -45z m34 37 c5 -5 35 -15 67 -22 l57 -13 -22 -24 c-18 -19 -30 -23 -52 -19 -37 8 -56 24 -56 47 0 11 -7 19 -15 19 -8 0 -15 5 -15 10 0 12 22 13 36 2z m606 -66 c-9 -20 -10 -20 -17 6 -9 34 4 58 17 33 7 -11 7 -25 0 -39z m-984 32 c9 -9 8 -16 -5 -30 -27 -30 -44 -23 -32 12 12 33 19 36 37 18z m937 -18 c17 -34 10 -38 -23 -14 -18 13 -21 19 -11 30 15 19 16 18 34 -16z m25 -79 c0 -15 3 -31 8 -37 4 -5 -1 -1 -10 9 -19 20 -25 73 -8 62 6 -3 10 -19 10 -34z m-1000 -32 c-13 -44 -20 -48 -20 -12 0 30 6 43 21 43 4 0 4 -14 -1 -31z m21 -46 c1 -17 2 -17 6 0 2 9 11 17 18 17 24 0 1 -43 -24 -45 -26 -2 -33 7 -25 29 8 21 24 20 25 -1z m456 -49 c9 -24 -18 -36 -39 -17 -10 9 -18 20 -18 25 0 15 51 8 57 -8z m-279 -42 c52 -46 53 -48 46 -89 -5 -34 -11 -43 -26 -43 -11 0 -22 8 -25 18 -5 18 -53 59 -53 44 0 -5 11 -19 25 -32 14 -13 25 -27 25 -32 0 -17 -21 -7 -59 27 -44 40 -48 41 -54 18 -3 -15 -6 -14 -15 7 -6 14 -11 18 -12 10 0 -13 -2 -13 -9 -1 -5 8 -16 11 -25 8 -12 -5 -14 -14 -9 -38 5 -25 3 -31 -8 -27 -8 3 -14 13 -14 23 0 10 -6 20 -13 23 -21 7 -13 20 18 30 31 11 171 5 180 -8 12 -17 48 -20 54 -5 4 11 -2 15 -25 15 -26 0 -30 3 -26 20 5 18 3 18 -22 7 -14 -6 -39 -11 -56 -11 -16 1 -47 2 -68 3 -29 1 -40 6 -48 24 l-10 22 5 -23 c4 -19 1 -22 -17 -16 -22 6 -22 6 -2 -10 19 -14 17 -15 -35 -17 -36 -1 -47 -3 -32 -8 l23 -6 -29 -28 c-25 -24 -33 -27 -50 -18 -30 16 -40 13 -18 -4 11 -8 27 -15 37 -15 9 0 22 -7 29 -15 16 -19 58 -19 79 -1 20 18 81 10 81 -11 0 -10 -6 -12 -21 -8 -25 8 -72 -2 -65 -14 6 -8 -134 -75 -141 -67 -7 6 62 56 78 56 10 1 8 5 -6 16 -14 10 -31 13 -55 9 -25 -4 -31 -3 -20 4 24 16 1 26 -32 13 -18 -6 -34 -10 -36 -7 -8 8 19 35 35 35 8 0 12 4 8 10 -8 13 94 80 122 80 13 0 22 5 21 13 -5 23 100 67 161 67 53 0 59 -3 109 -48z m252 -4 c0 -5 -13 -2 -30 7 -16 9 -30 22 -30 31 0 11 6 10 30 -8 17 -12 30 -26 30 -30z m88 -3 c2 -24 -4 -34 -29 -52 -24 -17 -37 -20 -51 -12 -27 15 -22 44 13 74 40 33 63 29 67 -10z m-125 -10 c-1 -5 3 -16 9 -23 18 -21 2 -24 -37 -8 -32 14 -36 18 -25 31 14 17 56 17 53 0z m177 -45 c0 -11 5 -31 12 -45 9 -19 9 -28 0 -37 -9 -9 -12 -9 -12 0 0 7 -7 12 -15 12 -22 0 -75 41 -69 52 10 16 67 47 76 42 4 -3 8 -14 8 -24z m-279 -10 c10 -6 19 -18 19 -28 0 -9 7 -29 14 -44 17 -33 5 -36 -33 -9 l-27 19 -28 -44 c-15 -24 -31 -44 -36 -44 -4 0 -30 18 -57 39 -27 22 -55 39 -63 38 -22 -1 -80 15 -80 22 0 3 4 12 9 19 7 12 11 11 22 -1 12 -13 16 -13 30 -1 15 13 19 12 39 -13 17 -22 29 -27 61 -27 21 1 39 -2 39 -7 0 -5 -12 -9 -27 -9 -17 0 -24 -3 -17 -10 14 -14 88 14 92 35 2 10 -1 21 -7 24 -14 9 -2 51 16 51 8 0 23 -5 34 -10z m-399 -60 c6 0 17 8 24 17 17 24 29 10 14 -16 -19 -36 -81 -21 -65 15 8 18 8 18 12 2 3 -10 9 -18 15 -18z m628 -30 c0 -11 -6 -20 -14 -20 -8 0 -18 -5 -22 -12 -4 -7 -3 -8 5 -4 7 4 20 5 29 1 15 -6 15 -8 -3 -15 -34 -15 -52 -11 -58 12 -8 31 10 58 38 58 18 0 25 -5 25 -20z m-680 -20 c0 -7 -76 -80 -83 -80 -3 0 -3 16 0 35 l6 35 -34 -11 c-47 -16 -59 -29 -27 -29 15 0 29 6 32 13 3 6 4 -1 3 -17 -2 -23 -7 -30 -26 -31 -16 -1 -25 4 -29 17 -2 10 -9 18 -16 18 -8 0 -8 2 0 8 6 4 16 16 22 27 8 17 20 20 81 20 39 1 71 -2 71 -5z m305 -37 c32 -27 60 -53 62 -59 2 -5 -12 -17 -30 -26 -33 -16 -35 -15 -55 4 -11 11 -32 21 -46 21 -14 0 -23 3 -20 8 3 5 -2 9 -10 9 -11 0 -16 9 -16 29 0 76 33 80 115 14z m-140 15 c-10 -34 -45 -57 -76 -51 -14 2 -43 -2 -63 -11 -21 -9 -47 -16 -57 -16 -10 0 -25 -9 -33 -21 -15 -22 -39 -18 -30 6 7 18 122 66 159 66 64 -1 75 1 75 10 0 5 -12 9 -27 10 l-28 1 30 13 c45 21 58 19 50 -7z m619 -87 c-5 -10 -10 3 -15 39 -5 38 -4 57 4 62 14 9 23 -74 11 -101z m-371 57 c-21 -31 -29 -37 -31 -24 -2 10 6 29 19 42 35 38 42 28 12 -18z m77 11 c0 -5 -5 -9 -12 -9 -6 0 -22 -10 -35 -22 -34 -31 -41 -13 -9 21 26 27 56 32 56 10z m226 -5 c0 -9 6 -19 14 -21 13 -4 13 -3 0 6 -13 9 -13 11 1 11 15 0 29 -19 29 -40 0 -4 -30 2 -66 13 l-67 22 39 12 c52 15 52 15 50 -3z m-1038 -24 c9 -1 30 -11 45 -24 l28 -23 -17 -36 c-10 -21 -22 -37 -27 -37 -5 0 -7 6 -4 13 21 50 21 49 -4 46 -13 -2 -29 0 -36 4 -8 5 -9 0 -5 -15 5 -23 5 -23 -16 -4 -12 10 -19 23 -15 29 3 5 -1 16 -11 22 -9 7 -14 19 -10 29 7 19 24 21 24 4 0 -7 6 -4 12 7 11 18 13 18 16 3 2 -10 11 -18 20 -18z m155 -29 c3 -13 -1 -21 -14 -24 -24 -6 -29 2 -18 31 10 26 24 23 32 -7z m677 4 c13 -14 20 -28 16 -32 -4 -4 -11 -1 -15 6 -5 8 -14 10 -22 6 -9 -6 -11 -3 -6 8 4 11 1 17 -9 17 -8 0 -12 5 -9 10 10 15 20 12 45 -15z m-419 -24 c-7 -16 -21 -31 -31 -34 -24 -6 -66 31 -51 46 10 10 82 26 90 20 2 -1 -2 -16 -8 -32z m638 7 c25 -12 39 -24 32 -26 -7 -2 -18 1 -24 7 -8 8 -16 6 -31 -7 -19 -16 -19 -16 -12 2 5 16 4 17 -9 6 -8 -7 -22 -9 -32 -5 -16 7 -15 9 7 15 l25 7 -27 11 c-16 6 -28 14 -28 18 0 9 50 -5 99 -28z m-295 -14 c3 -8 10 -13 15 -10 5 3 20 2 33 -3 22 -9 22 -10 -7 -11 l-30 -1 30 -14 c17 -7 24 -14 18 -14 -7 -1 -12 -4 -10 -8 5 -16 -15 -15 -61 2 -39 15 -43 20 -27 26 19 7 18 8 -2 8 -14 1 -23 -5 -23 -13 0 -22 -19 -30 -35 -16 -18 15 -19 30 -2 30 7 0 28 9 47 19 43 24 46 25 54 5z m-255 -7 c6 -8 8 -17 4 -20 -10 -11 -51 -8 -58 3 -17 27 33 42 54 17z m94 -7 c-3 -12 -14 -20 -27 -21 -11 0 -15 -3 -8 -6 6 -2 10 -9 6 -14 -3 -5 2 -9 11 -9 9 0 13 -4 10 -10 -3 -5 -14 -10 -24 -10 -10 0 -26 -10 -35 -22 -12 -16 -16 -18 -12 -5 4 11 0 17 -12 17 -12 0 -10 4 8 13 14 7 26 23 28 35 2 12 10 22 18 22 8 0 14 7 14 15 0 8 6 15 14 15 9 0 12 -7 9 -20z m-429 1 c5 -8 -72 -61 -89 -61 -16 0 40 47 82 69 1 1 4 -3 7 -8z m76 -16 c10 -12 10 -15 -3 -15 -9 0 -18 4 -22 10 -3 5 -12 7 -20 3 -8 -3 -15 0 -15 6 0 16 46 13 60 -4z m-272 -32 c21 -29 14 -42 -25 -45 -30 -3 -34 -6 -20 -12 12 -6 31 -3 54 8 32 15 35 15 29 1 -3 -9 -6 -23 -6 -31 0 -8 -7 -14 -15 -14 -18 0 -20 -17 -3 -22 21 -7 0 -38 -27 -38 -27 0 -110 38 -102 47 3 2 -1 19 -8 36 -13 34 -5 77 15 77 6 0 8 5 4 12 -12 19 89 1 104 -19z m217 20 c15 -5 14 -8 -6 -18 -30 -17 -34 -45 -6 -46 21 0 21 -1 2 -9 -12 -5 -15 -9 -5 -9 9 -1 11 -4 4 -11 -14 -14 -44 -2 -44 16 0 8 -4 14 -10 14 -25 0 -6 -33 26 -46 30 -13 38 -13 45 -2 7 10 12 11 29 1 27 -18 50 -16 27 1 -16 12 -16 14 -1 20 29 11 44 6 44 -14 0 -11 -4 -20 -10 -20 -5 0 -10 -10 -10 -21 0 -18 2 -19 15 -9 8 7 15 26 15 42 0 19 6 30 18 34 42 13 67 31 72 54 l6 25 11 -30 c6 -16 14 -37 18 -46 5 -13 -6 -22 -54 -40 -37 -15 -62 -30 -65 -42 -3 -11 -12 -17 -23 -16 -10 2 -24 -1 -32 -6 -10 -5 -16 -4 -19 4 -3 9 -11 6 -28 -9 -41 -39 -106 1 -106 64 0 12 -9 28 -19 34 -27 17 -24 -1 11 -73 31 -65 28 -82 -15 -71 -26 7 -27 9 -21 59 5 47 4 49 -6 20 -13 -40 -21 -41 -36 -8 -9 20 -9 25 2 25 7 0 16 13 19 28 4 21 19 35 55 55 27 15 55 34 62 42 14 17 13 17 35 8z m265 -25 c0 -13 -4 -29 -9 -36 -6 -10 -10 -8 -14 8 -6 25 1 50 14 50 5 0 9 -10 9 -22z m-224 -26 c-13 -13 -19 -14 -43 -2 l-28 13 30 12 c38 17 65 1 41 -23z m130 28 l28 -11 -25 -13 c-53 -27 -58 -27 -74 4 -16 30 -16 30 14 30 16 0 42 -5 57 -10z m169 1 c-15 -13 -65 -23 -65 -12 0 10 22 18 55 20 11 1 15 -3 10 -8z m120 -17 c0 -10 9 -27 20 -37 17 -16 17 -18 3 -13 -10 3 -18 1 -18 -4 0 -6 -6 -10 -14 -10 -17 0 -25 29 -19 64 6 30 28 30 28 0z m-381 -10 c25 -9 19 -24 -9 -24 -24 0 -32 10 -18 23 8 8 8 8 27 1z m312 -29 c-4 -14 -2 -25 4 -25 31 0 1 -25 -67 -56 -60 -27 -86 -34 -111 -29 -45 8 -51 30 -16 58 41 32 65 36 93 15 27 -21 44 -22 72 -8 16 9 17 14 6 31 -10 16 -9 21 3 29 22 14 23 13 16 -15z m254 15 c0 -12 -34 -12 -70 0 -20 7 -16 8 23 9 26 1 47 -3 47 -9z m-97 -20 c3 -11 2 -20 -2 -20 -5 0 -16 9 -26 20 -18 19 -17 20 2 20 12 0 23 -8 26 -20z m-213 -10 l35 -19 -31 -1 c-18 0 -42 9 -55 20 -23 18 -23 19 -4 19 11 0 36 -8 55 -19z m172 -62 c-12 -12 -42 1 -42 18 0 7 8 17 18 23 13 8 19 5 25 -11 4 -12 4 -25 -1 -30z m-61 -14 l34 -37 -29 6 c-16 3 -39 0 -51 -5 -16 -7 -35 -5 -66 5 -43 15 -43 16 -19 25 25 10 95 40 96 41 0 1 16 -15 35 -35z m-331 -61 c0 -7 -7 -13 -15 -13 -15 0 -21 31 -8 43 8 8 23 -12 23 -30z m80 17 c9 -5 19 -5 26 1 22 18 25 -8 4 -32 -16 -20 -19 -21 -20 -7 0 12 -10 18 -37 20 -44 4 -58 28 -16 28 15 0 35 -4 43 -10z m-135 -50 c3 -5 2 -10 -3 -10 -6 0 -8 -9 -5 -20 4 -13 14 -20 29 -20 29 0 42 -26 26 -49 -6 -9 -19 -30 -28 -48 -9 -18 -22 -37 -30 -44 -18 -15 -44 -4 -43 18 0 11 3 13 6 6 6 -17 33 -16 33 1 0 7 7 19 15 26 19 16 19 30 0 30 -20 0 -55 40 -55 62 0 10 7 18 15 18 8 0 14 3 14 8 -5 29 13 44 26 22z m65 -4 c0 -27 -12 -45 -26 -39 -14 5 -19 35 -7 46 12 12 33 7 33 -7z m180 4 c-12 -8 -9 -10 13 -10 16 0 26 4 22 10 -11 18 22 10 49 -11 18 -14 24 -24 17 -29 -8 -4 -5 -13 9 -25 11 -10 20 -28 20 -41 0 -28 -70 -99 -112 -113 -42 -15 -34 4 10 22 35 15 36 16 9 16 -15 1 -46 10 -68 21 l-40 21 7 -36 c8 -46 -3 -45 -23 3 -8 20 -24 49 -34 64 -23 32 -24 38 -3 38 8 0 29 15 47 34 28 30 48 41 82 45 6 0 3 -4 -5 -9z m-110 -15 c0 -15 -38 -41 -47 -32 -3 3 -2 15 2 26 7 24 45 29 45 6z m-10 -139 c0 -29 -29 -128 -41 -141 -15 -15 -10 -28 6 -15 10 8 15 9 15 2 0 -16 -39 -35 -57 -28 -13 5 -15 17 -10 57 4 28 2 47 -3 44 -5 -3 -12 4 -15 16 -5 14 0 28 16 45 41 44 45 33 24 -76 -2 -14 2 -7 9 15 8 22 15 33 15 25 1 -13 2 -13 11 0 5 8 9 22 9 30 0 10 -3 9 -10 -5 -7 -16 -8 -13 -4 12 3 23 1 32 -8 30 -6 -1 -12 4 -11 11 5 63 2 60 29 29 14 -15 25 -38 25 -51z m19 -97 c-25 -74 -37 -61 -18 18 9 33 14 41 20 30 5 -8 4 -29 -2 -48z"/> <path d="M410 1865 c0 -3 7 -17 16 -30 9 -14 12 -25 6 -25 -5 0 -13 7 -16 16 -10 26 -25 6 -17 -23 8 -30 31 -44 31 -18 0 13 4 14 20 5 23 -12 23 -13 9 29 -9 26 -49 64 -49 46z"/> <path d="M496 1756 c-3 -13 -9 -32 -13 -42 -4 -11 -3 -15 5 -11 6 4 13 -1 16 -10 3 -10 4 -5 2 11 -2 17 0 40 5 53 5 13 5 23 0 23 -5 0 -12 -11 -15 -24z"/> <path d="M517 1523 c-5 -4 151 -213 160 -213 2 0 -18 33 -45 73 -27 39 -57 86 -68 104 -18 32 -37 47 -47 36z"/> <path d="M720 1387 c0 -16 57 -117 66 -117 4 0 -54 120 -62 129 -2 2 -4 -3 -4 -12z"/> <path d="M1060 1190 c0 -3 -3 -48 -5 -100 -3 -63 -2 -88 4 -75 5 11 10 14 10 8 1 -7 5 -13 10 -13 6 0 6 12 -1 31 -14 40 -4 110 18 126 10 7 15 16 11 19 -4 4 -13 2 -21 -5 -11 -9 -15 -9 -19 1 -3 7 -6 11 -7 8z"/> <path d="M1092 1090 c0 -19 3 -44 8 -55 8 -18 9 -18 8 5 0 14 -4 39 -8 55 l-8 30 0 -35z"/> <path d="M1260 1223 c0 -7 -6 -13 -13 -13 -21 0 -16 -29 5 -36 17 -5 16 -8 -13 -30 -46 -34 -29 -30 31 7 29 18 59 29 72 26 22 -3 21 -4 -8 -18 -17 -8 -29 -20 -27 -26 3 -7 -2 -13 -11 -13 -9 0 -16 -7 -16 -16 0 -13 3 -14 15 -4 8 6 22 10 32 7 14 -3 12 -6 -12 -16 -16 -7 -39 -15 -49 -17 -11 -2 -24 -9 -30 -15 -8 -8 -6 -10 9 -6 58 17 75 19 75 8 0 -7 14 -5 41 6 32 12 43 13 49 4 5 -9 9 -7 12 7 5 19 3 19 -45 6 -54 -14 -66 -13 -45 3 16 13 145 53 169 53 10 0 20 4 24 9 7 12 -10 23 -19 13 -4 -4 -37 -7 -72 -7 -67 0 -77 10 -33 33 21 11 15 12 -41 6 -36 -4 -69 -7 -74 -8 -5 0 -10 4 -13 10 -2 7 19 14 58 18 75 9 70 19 -11 21 -44 1 -60 -2 -60 -12z"/> <path d="M1505 1089 c-51 -47 -58 -83 -13 -67 15 6 28 13 28 18 0 4 12 10 28 14 32 7 78 43 68 54 -4 3 -25 -3 -46 -16 -53 -30 -59 -28 -25 8 43 45 11 36 -40 -11z"/> <path d="M1459 1115 c-1 -3 -2 -10 -3 -15 0 -6 -14 -26 -29 -45 -15 -19 -23 -35 -18 -35 6 0 8 -12 5 -30 -4 -19 -2 -30 5 -30 6 0 11 14 11 31 0 39 26 95 54 114 l20 15 -22 0 c-12 0 -23 -2 -23 -5z"/> <path d="M1468 993 c-23 -27 -30 -43 -20 -43 11 0 46 50 39 56 -2 2 -11 -4 -19 -13z"/> <path d="M1585 1230 c19 -21 75 -28 75 -9 0 5 -4 7 -10 4 -5 -3 -23 1 -39 10 -40 20 -48 19 -26 -5z"/> <path d="M1190 989 c0 -6 9 -9 20 -6 11 3 20 1 20 -5 0 -6 9 -8 20 -5 10 3 21 0 23 -7 3 -7 11 -5 22 6 17 16 17 17 -3 11 -12 -3 -22 -1 -22 3 0 5 -18 10 -40 11 -24 2 -40 -2 -40 -8z"/> <path d="M550 595 c-11 -13 -7 -15 34 -15 25 0 46 5 46 10 0 6 -9 10 -19 10 -11 0 -26 2 -34 5 -7 3 -20 -1 -27 -10z"/> <path d="M556 515 c4 -8 10 -15 15 -15 6 0 23 -10 38 -21 34 -25 63 -23 38 3 -10 9 -12 19 -6 25 5 5 -4 7 -26 5 -21 -3 -35 0 -35 7 0 6 -7 11 -15 11 -9 0 -12 -6 -9 -15z"/> <path d="M810 494 c0 -18 16 -30 37 -30 12 0 19 4 16 10 -4 5 9 6 31 2 40 -8 46 -2 17 14 -14 7 -27 7 -45 -1 -20 -9 -29 -9 -41 1 -8 7 -15 9 -15 4z"/> <path d="M1090 477 c0 -9 11 -12 35 -9 41 5 37 22 -6 22 -17 0 -29 -5 -29 -13z"/> <path d="M1182 291 c-10 -6 -3 -13 25 -26 21 -9 43 -24 49 -31 10 -12 13 -12 23 0 10 12 5 16 -26 27 -21 7 -42 18 -48 25 -6 8 -15 10 -23 5z"/> <path d="M1086 271 c-13 -5 -16 -10 -8 -15 6 -4 21 -2 33 4 16 9 24 8 38 -4 10 -9 24 -16 31 -16 9 0 6 7 -8 20 -22 21 -52 24 -86 11z"/> <path d="M776 1970 c3 -14 12 -38 19 -55 l13 -30 1 31 c1 19 -8 42 -20 55 l-20 24 7 -25z"/> <path d="M851 1755 c-34 -39 -38 -47 -18 -39 17 6 61 64 54 70 -2 3 -18 -11 -36 -31z"/> <path d="M871 1715 c-13 -20 -22 -38 -19 -40 9 -9 50 43 46 59 -2 11 -10 6 -27 -19z"/> <path d="M708 1571 c15 -27 28 -48 30 -46 8 8 -32 95 -43 95 -8 0 -4 -17 13 -49z"/> <path d="M94 1543 c9 -18 25 -37 36 -43 31 -17 23 3 -16 41 l-36 34 16 -32z"/> <path d="M821 1510 c-1 -3 12 -39 28 -80 17 -41 30 -71 30 -67 2 22 -32 136 -39 132 -5 -3 -11 1 -13 7 -3 7 -6 11 -6 8z"/> <path d="M918 1473 c-3 -10 1 -34 8 -53 l13 -35 -6 50 c-6 57 -9 63 -15 38z"/> <path d="M460 1464 c0 -11 25 -44 56 -74 l57 -55 -53 70 c-29 39 -54 72 -56 74 -2 2 -4 -4 -4 -15z"/> <path d="M345 1451 c-3 -10 -3 -26 1 -35 3 -9 1 -16 -6 -16 -6 0 -8 -5 -4 -11 9 -15 19 4 27 49 7 34 -8 45 -18 13z"/> <path d="M115 1420 c-4 -6 5 -10 20 -10 16 0 24 -4 20 -10 -13 -20 25 -59 116 -120 50 -33 94 -59 96 -56 9 9 -6 23 -42 40 -19 9 -35 20 -35 24 0 5 19 15 43 24 52 20 25 23 -31 4 -38 -14 -42 -13 -65 7 -13 12 -32 27 -43 33 -29 17 -29 34 1 34 15 0 24 4 20 10 -3 6 -15 10 -26 10 -10 0 -19 5 -19 10 0 6 -11 10 -24 10 -14 0 -28 -4 -31 -10z"/> <path d="M231 1376 c-35 -19 -8 -30 29 -11 16 8 30 18 30 20 0 10 -35 4 -59 -9z"/> <path d="M295 1353 c-11 -3 -24 -9 -29 -14 -17 -15 49 -10 70 6 19 14 19 14 -1 14 -11 -1 -29 -3 -40 -6z"/> <path d="M401 1332 c-7 -13 -11 -24 -9 -25 2 -1 13 -8 25 -14 36 -20 48 -15 26 10 -11 12 -23 29 -25 37 -4 11 -8 9 -17 -8z"/> <path d="M485 1310 c-4 -7 -3 -15 1 -19 109 -93 135 -113 139 -110 2 3 -27 35 -64 73 -44 43 -72 63 -76 56z"/> <path d="M470 1213 c0 -8 65 -53 75 -53 3 0 -10 14 -28 30 -35 30 -47 36 -47 23z"/> <path d="M2192 1048 c7 -4 42 -7 78 -7 75 1 63 6 -28 12 -34 2 -57 0 -50 -5z"/> <path d="M1840 1035 c0 -23 31 -33 85 -25 l50 7 -59 2 c-47 1 -57 4 -52 16 3 9 0 15 -9 15 -8 0 -15 -7 -15 -15z"/> <path d="M1948 1043 c34 -2 90 -2 125 0 34 2 6 3 -63 3 -69 0 -97 -1 -62 -3z"/> <path d="M1997 993 c10 -14 20 -47 24 -72 l6 -46 2 42 c1 44 15 64 25 37 3 -9 6 -67 6 -130 0 -111 -1 -114 -22 -115 -22 -1 -22 -1 2 -9 25 -7 25 -7 -5 -11 l-30 -4 27 -24 c25 -22 39 -25 118 -27 49 -2 98 -8 109 -14 11 -5 24 -10 30 -10 15 0 14 26 -1 28 -7 0 -44 5 -83 11 -38 5 -85 9 -104 8 -20 -1 -36 3 -38 11 -4 9 12 12 57 12 43 0 66 5 78 16 15 15 10 16 -56 9 l-72 -7 0 132 0 132 119 -4 c106 -3 123 -6 150 -26 32 -23 43 -15 16 12 -26 26 -85 36 -212 36 -94 0 -123 3 -123 13 0 13 45 13 257 4 35 -2 64 0 66 3 2 3 2 0 1 -7 -3 -13 18 -23 46 -23 10 0 21 -6 23 -12 3 -8 6 -6 6 5 1 12 -7 17 -24 17 -18 0 -25 5 -25 20 0 19 -7 20 -195 20 l-195 0 17 -27z"/> <path d="M2440 913 c0 -42 -3 -54 -10 -43 -8 13 -11 11 -16 -7 -4 -13 -11 -20 -18 -16 -6 3 -6 0 2 -8 6 -7 12 -32 12 -56 0 -24 5 -43 10 -43 6 0 11 -42 12 -102 l2 -103 5 135 c6 125 5 136 -13 149 -19 14 -19 15 2 22 19 7 22 16 22 69 0 33 -2 60 -5 60 -3 0 -5 -26 -5 -57z"/> <path d="M1984 690 c0 -151 2 -213 3 -138 2 76 2 200 0 276 -1 75 -3 13 -3 -138z"/> <path d="M2148 933 c23 -2 61 -2 85 0 23 2 4 4 -43 4 -47 0 -66 -2 -42 -4z"/> <path d="M2084 825 l1 -90 57 -3 c32 -2 65 1 73 5 8 5 -15 7 -55 5 l-69 -4 -4 88 -3 89 0 -90z"/> <path d="M1904 655 c0 -137 2 -195 3 -128 2 67 2 179 0 250 -1 70 -3 16 -3 -122z"/> <path d="M2851 836 c9 -8 98 -13 93 -5 -3 5 -26 9 -51 9 -26 0 -44 -2 -42 -4z"/> <path d="M2470 778 c0 -18 2 -20 9 -9 8 12 12 12 25 2 12 -10 19 -9 37 8 l23 21 -47 0 c-42 0 -47 -2 -47 -22z"/> <path d="M2814 784 c3 -9 6 -18 6 -20 0 -3 9 0 19 6 14 7 20 7 23 -1 3 -9 15 -8 43 2 67 22 62 29 -19 29 -67 0 -77 -2 -72 -16z"/> <path d="M2278 778 c-6 -16 1 -38 12 -38 4 0 10 11 12 25 5 26 -16 36 -24 13z"/> <path d="M2326 742 c0 -15 4 -34 7 -42 3 -8 8 -26 10 -40 3 -14 3 -4 1 21 -1 26 2 51 8 57 7 7 4 13 -8 20 -16 9 -19 6 -18 -16z"/> <path d="M2888 740 c-20 -11 -40 -25 -44 -32 -6 -9 76 32 95 48 12 11 -19 1 -51 -16z"/> <path d="M1884 600 c0 -85 2 -120 3 -77 2 42 2 112 0 155 -1 42 -3 7 -3 -78z"/> <path d="M2716 640 c-54 -53 -97 -102 -95 -109 2 -6 53 38 113 99 60 60 103 109 95 109 -8 -1 -58 -45 -113 -99z"/> <path d="M2362 641 c-2 -84 -2 -84 -22 -66 -11 10 -22 16 -25 13 -3 -3 1 -11 10 -18 20 -17 19 -31 -2 -24 -16 5 -16 4 1 -6 35 -23 47 6 43 101 l-3 84 -2 -84z"/> <path d="M2503 610 c0 -36 2 -50 4 -32 2 17 2 47 0 65 -2 17 -4 3 -4 -33z"/> <path d="M1590 632 c0 -13 62 -22 75 -11 5 6 1 9 -10 9 -11 0 -30 3 -42 6 -13 4 -23 2 -23 -4z"/> <path d="M2018 505 c-2 -74 0 -135 5 -135 4 0 7 61 7 135 0 74 -2 135 -4 135 -3 0 -6 -61 -8 -135z"/> <path d="M2084 607 c-2 -7 -3 -69 -1 -138 l3 -124 2 132 c2 116 4 132 20 136 16 4 16 5 -1 6 -10 0 -20 -5 -23 -12z"/> <path d="M1655 590 c-4 -6 5 -10 21 -10 15 0 36 -8 47 -17 19 -17 20 -17 9 3 -17 31 -63 46 -77 24z"/> <path d="M2061 470 c-2 -183 -1 -180 -69 -180 -75 0 -61 -9 19 -12 l64 -3 -3 140 c-4 193 -9 217 -11 55z"/> <path d="M2546 463 l-38 -38 4 33 c5 35 -2 41 -22 17 -10 -12 -10 -15 0 -15 9 0 11 -14 7 -52 -2 -29 -1 -99 4 -156 4 -57 5 -110 2 -118 -3 -9 -23 -15 -62 -16 l-56 -2 50 -3 c67 -4 95 -11 95 -23 0 -6 -33 -10 -75 -10 -46 0 -75 4 -75 11 0 5 -5 7 -10 4 -26 -16 8 -25 91 -25 63 0 88 -3 83 -11 -4 -7 1 -10 11 -7 26 5 30 25 6 33 -33 10 -41 36 -48 164 -6 126 5 188 33 177 8 -3 14 -1 14 5 0 6 5 7 12 3 7 -4 8 -3 4 5 -9 14 19 25 42 16 16 -7 15 -8 -3 -15 -16 -7 -17 -9 -3 -9 9 -1 23 -4 32 -7 12 -5 16 0 16 18 0 17 -9 27 -32 38 -18 7 -35 15 -38 17 -3 2 -23 -14 -44 -34z"/> <path d="M2738 463 c-8 -10 -15 -26 -15 -37 0 -18 1 -18 14 0 14 19 15 19 30 -1 8 -11 23 -38 33 -59 10 -22 25 -41 33 -42 13 -2 13 2 0 27 -8 16 -19 29 -24 29 -6 0 -7 5 -4 10 3 6 -2 22 -13 38 -11 15 -17 33 -15 40 7 18 -22 15 -39 -5z"/> <path d="M2533 310 c0 -41 2 -58 4 -37 2 20 2 54 0 75 -2 20 -4 3 -4 -38z"/> <path d="M2433 310 c0 -36 2 -50 4 -32 2 17 2 47 0 65 -2 17 -4 3 -4 -33z"/> <path d="M1850 305 c0 -17 30 -55 43 -55 7 0 4 5 -5 11 -26 15 -22 29 10 30 16 1 20 3 10 6 -10 2 -18 8 -18 12 0 4 -9 7 -20 7 -11 0 -20 -5 -20 -11z"/> <path d="M1913 258 c-2 -5 39 -8 91 -8 121 0 127 -18 9 -23 -87 -3 -87 -3 12 -3 87 1 100 3 103 19 2 10 0 17 -5 16 -4 -1 -12 -1 -18 1 -31 5 -188 4 -192 -2z"/> <path d="M2887 183 c-6 -10 29 -60 37 -52 3 2 -3 17 -13 33 -10 15 -21 24 -24 19z"/> <path d="M2798 113 c-34 -41 113 -102 177 -73 15 7 10 8 -16 4 -48 -8 -110 10 -138 40 l-22 23 73 -5 c86 -6 84 10 -3 18 -43 4 -63 2 -71 -7z"/> <path d="M2910 80 c-45 -7 -45 -7 17 -8 34 -1 65 3 68 8 7 11 -15 11 -85 0z"/> <path d="M2408 43 c23 -2 59 -2 80 0 20 2 1 4 -43 4 -44 0 -61 -2 -37 -4z"/> </g> </svg> 